<svg id="Laag_1" data-name="Laag 1" xmlns="http://www.w3.org/2000/svg" viewBox="0 0 50 50"><defs><style>.cls-1{fill:#e30613;}.cls-2{fill:#fff;stroke:#1d1d1b;stroke-miterlimit:10;stroke-width:0.25px;}</style></defs><rect class="cls-1" width="50" height="50"/><path class="cls-2" d="M12,25.63q0,.71.15.84a.49.49,0,0,0,.28.13c.12,0,.38,0,.79,0h1.05a1.92,1.92,0,0,0,1.11-.22,1.1,1.1,0,0,0,.27-.88c0-.12,0-.26,0-.42s0-.49,0-.55c0-.35.14-.52.42-.52s.5.16.5.48a1.55,1.55,0,0,1,0,.23l-.09.61a4.8,4.8,0,0,0,0,.55c0,.11,0,.28,0,.5s0,.38,0,.5c0,.36-.21.54-.61.54l-.56-.05-.88,0H11.57c-.2,0-.52,0-1,0l-.33,0-.37,0c-.34,0-.5-.15-.5-.44a.33.33,0,0,1,.37-.38,1.37,1.37,0,0,1,.29,0l.28,0c.41,0,.62-.3.62-.9V21c0-.59-.21-.89-.62-.89a.81.81,0,0,0-.25,0l-.32,0A.39.39,0,0,1,9.51,20a.4.4,0,0,1-.1-.28q0-.42.51-.42h.18l.64.07a7.59,7.59,0,0,0,.78.06,6.14,6.14,0,0,0,.77-.06l.55-.07H13q.54,0,.54.42a.4.4,0,0,1-.1.28.39.39,0,0,1-.27.11l-.32,0a.81.81,0,0,0-.25,0c-.41,0-.62.3-.62.89Z"/><path class="cls-2" d="M18.61,21c0-.59-.2-.89-.61-.89a.77.77,0,0,0-.25,0l-.33,0a.36.36,0,0,1-.26-.11.41.41,0,0,1-.11-.28c0-.28.17-.42.5-.42h.18l1.68.12h.12l2.88-.09.62,0h.35c.41,0,.62.18.62.55,0,.06,0,.27,0,.61s0,.49,0,.71a4.39,4.39,0,0,0,0,.59c0,.23,0,.4,0,.51,0,.31-.14.46-.43.46s-.42-.21-.42-.64v-.62c0-.67-.14-1.07-.42-1.19a5.61,5.61,0,0,0-1.61-.13,8.82,8.82,0,0,0-1,0,.67.67,0,0,0-.52.72v1.2c0,.32.08.51.22.56l.28,0h.49c.49,0,.74-.17.74-.52a3,3,0,0,0,0-.37,3.17,3.17,0,0,1,0-.41c0-.32.14-.48.43-.48s.42.18.42.52c0,.06,0,.31-.07.74a7.37,7.37,0,0,0-.07,1c0,.16,0,.44.05.85q0,.09.06.42a3.73,3.73,0,0,1,0,.42.38.38,0,0,1-.43.43c-.28,0-.42-.17-.42-.5a3.61,3.61,0,0,1,0-.39,3.46,3.46,0,0,0,0-.38c0-.35-.23-.52-.68-.52H20.1c-.23,0-.38,0-.43.12a1.12,1.12,0,0,0-.08.52v.74c0,.13,0,.3,0,.52s0,.44,0,.53c0,.32.07.52.19.6a1.55,1.55,0,0,0,.62.08h1.64a1.64,1.64,0,0,0,1-.21,1,1,0,0,0,.26-.79c0-.12,0-.29,0-.53s0-.41,0-.53q0-.54.42-.54c.3,0,.45.18.45.55,0,.14,0,.36,0,.66s0,.51,0,.66,0,.28,0,.5,0,.38,0,.49c0,.38-.18.57-.55.57l-.42,0h-.53l-.93,0-1.77,0c-.75,0-1.49,0-2.21.08h-.18c-.33,0-.5-.15-.5-.43s.12-.39.37-.39l.33,0a1.07,1.07,0,0,0,.25,0c.41,0,.61-.3.61-.9Z"/><path class="cls-2" d="M28.92,19.12a3.14,3.14,0,0,1,2.18.9c0-.11-.05-.18-.05-.19s0-.25,0-.27a.35.35,0,0,1,.4-.39c.28,0,.43.17.43.51a1.51,1.51,0,0,1,0,.26l-.09.57a4.56,4.56,0,0,0,0,.54c0,.15,0,.48.05,1v.11c0,.36-.15.54-.44.54s-.42-.19-.42-.59v-.36a1.62,1.62,0,0,0-.55-1.3,2.36,2.36,0,0,0-3.28.42,4.09,4.09,0,0,0-.66,2.47,4.37,4.37,0,0,0,.68,2.6,2.18,2.18,0,0,0,1.88.94,1.84,1.84,0,0,0,1.42-.54,2.19,2.19,0,0,0,.51-1.55.91.91,0,0,0-.14-.57.6.6,0,0,0-.49-.16h-.55c-.38,0-.57-.13-.57-.41s.16-.42.49-.42l.35,0a9.24,9.24,0,0,0,1.21.11,8,8,0,0,0,1.25-.11,1.51,1.51,0,0,1,.32,0c.32,0,.48.14.48.4a.37.37,0,0,1-.13.29.4.4,0,0,1-.29.12h-.4c-.35,0-.52.39-.52,1.17v.95a4.88,4.88,0,0,0,0,.56,3.13,3.13,0,0,1,0,.39c0,.33-.14.49-.43.49a.37.37,0,0,1-.42-.42l0-.29c0-.07,0-.19,0-.37a4.33,4.33,0,0,1-.43.52,2.83,2.83,0,0,1-1.93.62,3.06,3.06,0,0,1-2.5-1.15,4.6,4.6,0,0,1-.95-3,4.91,4.91,0,0,1,1-3.18A3.21,3.21,0,0,1,28.92,19.12Z"/><path class="cls-2" d="M37.32,27.65a3.07,3.07,0,0,1-2.53-1.15,4.83,4.83,0,0,1-.93-3.12,4.75,4.75,0,0,1,.94-3.13,3.17,3.17,0,0,1,2.58-1.13,3.11,3.11,0,0,1,2.5,1.1,4.51,4.51,0,0,1,.93,3,5.1,5.1,0,0,1-.94,3.24A3.08,3.08,0,0,1,37.32,27.65Zm0-7.67a2.09,2.09,0,0,0-1.79.89,4.28,4.28,0,0,0-.63,2.5,4.3,4.3,0,0,0,.63,2.52,2.18,2.18,0,0,0,3.55,0,4.29,4.29,0,0,0,.65-2.53,4.26,4.26,0,0,0-.62-2.48A2.07,2.07,0,0,0,37.34,20Z"/></svg>